<?xml version="1.0" standalone="no"?>
<!DOCTYPE svg PUBLIC "-//W3C//DTD SVG 20010904//EN"
 "http://www.w3.org/TR/2001/REC-SVG-20010904/DTD/svg10.dtd">
<svg version="1.0" xmlns="http://www.w3.org/2000/svg"
 width="1024.000000pt" height="1024.000000pt" viewBox="0 0 1024.000000 1024.000000"
 preserveAspectRatio="xMidYMid meet">

<g transform="translate(0.000000,1024.000000) scale(0.100000,-0.100000)"
fill="#000000" stroke="none">
<path d="M3133 9189 c-17 -5 -67 -42 -110 -82 -43 -40 -159 -144 -258 -232
-99 -87 -243 -221 -320 -297 l-141 -138 -34 36 c-100 103 -268 196 -435 240
-88 24 -120 27 -260 27 -143 1 -171 -2 -258 -26 -200 -54 -389 -170 -567 -347
-280 -280 -439 -636 -428 -955 6 -156 40 -215 127 -215 69 0 130 31 273 138
218 164 361 246 528 302 85 29 248 60 310 60 l50 0 -59 -82 c-67 -95 -220
-327 -312 -473 -56 -89 -63 -106 -64 -151 0 -38 5 -58 20 -74 11 -12 89 -65
175 -118 85 -53 274 -170 420 -260 146 -91 271 -170 279 -177 11 -11 5 -36
-44 -157 -101 -251 -185 -515 -321 -1013 -198 -720 -281 -902 -641 -1406 -222
-313 -296 -499 -297 -754 -2 -348 153 -617 446 -774 115 -62 231 -92 378 -98
158 -7 263 11 436 72 142 50 223 58 291 30 54 -23 69 -39 129 -148 158 -280
339 -435 601 -513 70 -21 116 -27 223 -31 225 -8 389 36 668 179 84 43 179 85
211 94 104 26 172 0 361 -140 121 -90 301 -189 409 -225 285 -97 601 -99 861
-5 150 54 243 107 395 230 136 108 181 129 285 128 l85 0 206 -107 c114 -59
240 -119 280 -133 249 -86 533 -86 773 0 224 80 353 182 544 432 124 162 173
178 367 120 157 -48 264 -66 390 -66 338 0 602 156 739 436 56 113 77 202 83
350 11 263 -55 487 -235 792 -144 244 -205 371 -267 558 -54 165 -82 311 -170
889 -89 580 -228 1038 -460 1510 -191 390 -392 672 -695 975 -445 445 -987
744 -1647 909 -458 115 -1067 145 -1542 75 -337 -49 -709 -149 -952 -257 l-56
-24 -281 376 c-155 207 -302 402 -327 433 -65 83 -103 104 -162 87z m79 -317
c36 -48 117 -153 180 -233 93 -120 180 -236 306 -409 11 -15 5 -22 -60 -60
-78 -46 -151 -97 -405 -283 -113 -82 -167 -116 -177 -110 -19 11 -437 366
-544 462 l-83 74 93 95 c131 132 599 552 615 552 5 0 38 -40 75 -88z m-1535
-323 c110 -15 245 -62 333 -117 77 -48 192 -156 223 -210 l17 -30 -77 -84
c-42 -45 -110 -125 -151 -176 -55 -68 -79 -91 -91 -86 -127 51 -237 69 -389
61 -308 -15 -589 -145 -896 -414 -58 -51 -113 -93 -122 -93 -15 0 -16 13 -12
118 4 96 11 134 36 212 63 190 180 382 312 510 248 242 529 349 817 309z
m4302 -159 c959 -128 1753 -587 2306 -1333 331 -445 590 -1065 719 -1717 13
-69 43 -249 66 -400 51 -339 71 -448 116 -619 62 -238 149 -438 313 -720 183
-313 234 -462 234 -681 -1 -365 -214 -602 -562 -627 -118 -8 -232 9 -412 63
-182 54 -254 56 -350 12 -78 -35 -115 -72 -228 -221 -172 -228 -282 -313 -487
-372 -290 -84 -543 -42 -856 141 -183 108 -256 134 -374 134 -130 0 -239 -47
-391 -168 -124 -99 -171 -131 -258 -174 -148 -74 -259 -98 -454 -98 -293 1
-524 90 -761 294 -173 149 -319 194 -485 150 -33 -8 -123 -48 -200 -89 -240
-126 -382 -175 -550 -190 -133 -13 -303 26 -423 97 -85 49 -218 189 -276 289
-123 211 -166 261 -255 303 -38 17 -65 21 -151 21 -91 0 -119 -4 -206 -32
-196 -63 -269 -77 -404 -77 -148 0 -238 21 -363 86 -97 51 -169 119 -225 213
-116 197 -131 406 -47 642 43 121 81 187 213 372 223 314 367 560 456 784 72
177 102 276 186 594 252 954 431 1403 744 1868 196 291 518 637 760 817 499
371 1066 586 1706 647 63 6 133 13 155 15 22 2 164 2 315 1 205 -3 314 -9 429
-25z m-4134 -750 c19 -17 233 -162 445 -303 88 -59 202 -140 233 -167 5 -4
-25 -58 -66 -121 -91 -142 -180 -296 -241 -416 l-46 -92 -167 106 c-93 58
-268 169 -391 246 l-222 140 17 27 c185 289 400 606 408 602 6 -3 19 -13 30
-22z"/>
<path d="M5317 7269 c-45 -27 -47 -43 -47 -488 l0 -419 26 -31 c48 -57 128
-50 166 16 17 29 19 63 21 435 2 440 1 455 -54 483 -32 17 -86 19 -112 4z"/>
<path d="M4925 7251 c-11 -5 -29 -19 -40 -31 -19 -21 -20 -38 -23 -430 l-3
-408 24 -27 c17 -20 35 -28 70 -32 43 -5 49 -3 81 29 l34 34 4 374 c2 206 0
390 -3 409 -14 64 -88 106 -144 82z"/>
<path d="M5732 7224 c-53 -37 -54 -46 -55 -471 l-2 -394 33 -30 c61 -55 150
-30 172 49 6 22 10 184 10 405 0 307 -2 373 -15 397 -20 38 -52 60 -90 60 -17
0 -41 -7 -53 -16z"/>
<path d="M2966 6681 c-35 -36 -44 -96 -22 -138 19 -37 164 -130 775 -497 362
-216 431 -262 417 -270 -10 -6 -102 -65 -204 -130 -103 -65 -275 -173 -382
-239 -107 -65 -280 -172 -385 -236 -104 -64 -204 -131 -222 -148 -43 -43 -58
-101 -39 -146 26 -64 130 -104 198 -76 74 30 520 293 863 509 172 109 569 376
583 392 20 25 33 80 26 116 -12 62 -9 60 -519 352 -193 111 -834 464 -925 510
-78 40 -127 40 -164 1z"/>
<path d="M7413 6451 c-197 -99 -466 -239 -598 -311 -132 -73 -313 -170 -403
-218 -188 -99 -222 -129 -222 -197 0 -86 -2 -84 770 -511 781 -431 828 -453
899 -434 20 5 52 25 71 44 27 29 34 45 38 89 4 49 1 57 -24 85 -54 58 -413
261 -1016 574 l-297 154 197 104 c637 335 1051 569 1096 618 31 35 17 108 -28
149 -66 61 -76 57 -483 -146z"/>
<path d="M2515 5096 c-150 -70 -316 -249 -376 -405 -30 -78 -31 -198 -2 -262
87 -193 309 -237 447 -89 48 52 75 103 94 180 12 51 19 525 7 553 -10 23 -56
47 -92 47 -15 0 -50 -11 -78 -24z m15 -363 c0 -156 -2 -172 -24 -219 -29 -63
-58 -84 -112 -84 -34 0 -49 6 -72 30 -79 79 -37 215 113 365 42 41 80 75 85
75 6 0 10 -64 10 -167z"/>
<path d="M8221 5001 c-26 -27 -28 -39 -34 -133 -4 -57 -16 -141 -27 -188 -24
-105 -26 -238 -4 -303 20 -58 96 -144 149 -168 55 -26 175 -25 231 0 112 51
165 140 172 289 6 122 -14 199 -78 295 -73 111 -141 167 -259 215 -76 31 -116
29 -150 -7z m186 -220 c138 -100 188 -314 92 -395 -46 -39 -99 -36 -147 8
l-37 34 0 99 c0 92 31 283 46 283 3 0 24 -13 46 -29z"/>
<path d="M2784 4268 c-33 -30 -100 -88 -150 -130 -153 -129 -195 -190 -195
-284 0 -106 26 -171 93 -228 76 -65 197 -83 279 -41 60 32 115 93 149 167 44
94 51 214 25 385 -23 143 -42 177 -102 181 -37 3 -46 -2 -99 -50z m53 -329
c-6 -89 -40 -168 -82 -187 -45 -21 -84 -15 -117 18 -27 28 -30 36 -25 76 5 52
29 80 142 175 l70 58 9 -32 c4 -18 6 -66 3 -108z"/>
<path d="M7913 4285 c-61 -43 -102 -300 -73 -455 21 -112 87 -208 174 -252 26
-13 68 -23 113 -26 88 -6 143 17 202 85 51 58 64 98 59 187 -5 114 -41 174
-151 256 -48 36 -120 100 -160 143 -63 68 -76 77 -107 77 -20 0 -45 -7 -57
-15z m226 -349 c50 -26 91 -82 91 -125 0 -57 -27 -86 -82 -86 -26 0 -55 8 -72
18 -39 26 -74 109 -82 194 -10 107 -5 112 61 58 30 -24 68 -51 84 -59z"/>
</g>
</svg>
